<svg version="1.2" xmlns="http://www.w3.org/2000/svg" viewBox="0 0 100 75" width="100" height="75"><style>.a{fill:#f18618}.b{fill:#2e53a0}</style><path fill-rule="evenodd" class="a" d="m13.3 32.3h11v14.5h-2.9v-1.6h-0.3c-1.5 1.5-2.7 2-4.7 2-2.7 0-4.4-1.5-4.4-3.9v-0.7c0-3.3 1.4-4.5 5.9-4.8l2.8-0.2v-2.1h-7.4zm7.4 10.3v-2.2l-2.2 0.3c-2.4 0.2-2.9 0.5-2.9 1.9 0 1 0.5 1.5 1.7 1.5 1.1 0 2.5-0.6 3.4-1.5z"/><path fill-rule="evenodd" class="b" d="m30.5 32.3h5.7v2.9h3.1v11.6h-3.6v-11.3h-5.2v11.3h-3.6v-18.9h3.6zm57.5 10c0 4-1.2 5-6.1 5-4.4 0-5.5-1-5.6-4.6h3.5c0 1.2 0.5 1.4 2.2 1.4 2 0 2.5-0.3 2.5-1.5 0-1-0.4-1.3-2-1.4l-1.8-0.2c-3.5-0.3-4.3-1.2-4.3-4.5 0-3.5 1.2-4.4 5.8-4.4 4.2 0 5.3 0.9 5.4 4.4h-3.4c-0.2-1.1-0.7-1.3-2.2-1.3-1.7 0-2.1 0.2-2.1 1.4 0 0.9 0.3 1.2 1.5 1.3l2.2 0.3c3.5 0.3 4.4 1.1 4.4 4.1zm-23.3-1.5h-8.7c0.1 2.7 0.7 3.3 3 3.3 1.5 0 1.9-0.2 2.3-1.2h3.5c-0.5 3.2-2.1 4.4-5.8 4.4-5.1 0-6.7-2-6.7-7.8 0-5.3 1.8-7.4 6.4-7.4 4.6 0 6.2 1.6 6.2 6.3q0 1.2-0.2 2.4zm-3.2-2.9c-0.1-2-0.8-2.8-2.7-2.8-1.9 0-2.8 0.8-2.8 2.8zm9.8-9.9h4.3v2.8h-4c-0.7 0-0.9 0.3-0.9 1.1v0.4h4.3v3.1h-4.3v11.5h-3.7v-14c0-4.1 1.4-5 4.3-4.9zm-25.7 18.8h-3.6v-14.5h9v3.4h-5.4z"/></svg>