<svg viewBox="0 0 132.29167 39.6875" xmlns="http://www.w3.org/2000/svg">
  <path style="fill:#333;fill-opacity:1;stroke-width:.0181688" d="M111.84857 57.432752c-4.84855-.18763-9.13384-.97161-13.008869-2.37992-1.57424-.57213-3.24167-1.35056-4.52403-2.11202-2.37681-1.41132-4.15195-3.03805-5.236303-4.79851-.08708-.141373-.249327-.436909-.360553-.656752-.44595-.881427-.692494-1.684827-.81961-2.670815-.04681-.363077-.04681-1.326623 0-1.689701.127116-.985988.37366-1.789387.81961-2.670815.111226-.219842.273474-.515379.360553-.656751 1.171618-1.90214 3.135823-3.636426 5.808623-5.128689.67784-.378455 1.90574-.966427 2.71957-1.302266 3.684319-1.520364 8.008079-2.469586 12.651229-2.777397 1.22372-.08112 1.55109-.09029 3.24316-.09086 1.64203-.000529 1.85063.0045 3.01601.07318 7.70519.453988 14.60595 2.734194 18.76578 6.200741 2.13045 1.775367 3.4063 3.732389 3.79818 5.82596.0947.505841.11043.70157.11043 1.371746 0 .670383-.0159.867458-.11046 1.371092-.31962 1.701768-1.20274 3.285146-2.66909 4.785477-2.91661 2.98426-7.80873 5.28518-13.73561 6.46029-2.21662.43949-4.27148.68573-6.84963.82083-.62395.0327-3.34053.0499-3.97899.0252zm3.50657-1.2345c3.32142-.13315 6.26152-.54654 9.17528-1.29008 5.55241-1.4169 9.95865-3.92953 12.04309-6.867539.79687-1.123175 1.23351-2.214891 1.37747-3.443925.0299-.25531.0297-.99364 0-1.253646-.20312-1.758543-1.07934-3.385635-2.64287-4.907759-3.26422-3.17777-9.12804-5.527641-15.8828-6.364856-2.0506-.254165-3.70938-.353841-5.88669-.35374-2.34395.000111-4.17441.119766-6.38633.417467-6.61935.890884-12.375519 3.272795-15.516209 6.420615-1.952415 1.956855-2.80899 4.125785-2.489389 6.303367.371702 2.532578 2.317389 4.933146 5.605369 6.915836 4.32143 2.60586 10.428209 4.19356 17.015089 4.42374.30478.0107.65225.022.77219.0252.40177.0108 2.35683-.006 2.81615-.0247zm-3.37031-.98367c-4.15232-.13984-8.1002-.80373-11.49177-1.9325-2.868649-.95474-5.322399-2.22185-7.140339-3.68727-.71958-.580039-1.48438-1.355345-1.94628-1.972996-.976618-1.305952-1.429124-2.703957-1.314377-4.06073.125216-1.480521.835456-2.865297 2.160477-4.212344 1.12614-1.144846 2.53228-2.140704 4.31606-3.05671 3.727839-1.914316 8.466519-3.116998 13.699289-3.476879 1.02984-.07083 1.61687-.09252 2.81617-.104076 3.61069-.03478 7.06597.319987 10.29261 1.056796 5.84195 1.334008 10.54714 3.933103 12.54848 6.931625.53472.801198.87304 1.643703 1.00885 2.51233.0345.22074.0404.331259.0404.758058 0 .550963-.0257.786916-.13308 1.226495-.41093 1.680458-1.60012 3.259555-3.56267 4.730711-3.9974 2.9965-10.25517 4.88794-17.37844 5.25272-1.0496.0537-2.87131.0699-3.91538.0348zm3.36124-.43404c2.80426-.11752 5.33961-.43813 7.77626-.98335 5.40351-1.20907 9.86864-3.52127 12.04288-6.236206.75906-.947815 1.20997-1.931274 1.35906-2.964278.0436-.302035.0435-.952773-.00016-1.253646-.19444-1.338893-.88315-2.575658-2.11897-3.805087-1.88772-1.877983-4.91506-3.530552-8.53797-4.660733-4.55917-1.422241-10.00956-2.001758-15.46302-1.644121-4.30143.282088-8.30389 1.148776-11.655289 2.523821-2.3165.950436-4.23069 2.093526-5.67776 3.390571-.28031.251249-.75462.733333-.9748.990765-1.130046 1.321233-1.669442 2.716691-1.586415 4.104155.08412 1.405769.750545 2.729233 2.034325 4.040008.829.846434 1.79593 1.591081 3.01602 2.322681 3.99989 2.39846 9.558209 3.86319 15.779619 4.15827 1.11821.053 2.96161.0609 4.00622.0171zm-6.76132-4.44288c-1.09972-.15004-1.65413-.83384-1.56012-1.924223.0824-.956406.52184-2.268808 1.00719-3.008218.15534-.236622.2957-.395708.50019-.56693.31105-.26039.62373-.418084 1.03185-.520372.35158-.08811.50782-.102764 1.09466-.102666.48604.000071.5551.0039.74131.0416 1.005.203216 1.4967.869337 1.40513 1.903566-.0732.827466-.38548 1.874155-.79145 2.653133-.16815.322676-.30568.52125-.50036.72257-.47857.49486-1.02068.73887-1.7994.80998-.28173.0257-.91324.021-1.129-.008zm1.1835-1.343283c.44866-.112469.73838-.435885 1.01703-1.135335.26708-.670385.45011-1.304711.46739-1.619792.0145-.263901-.0177-.368361-.15732-.50858-.16999-.170884-.38275-.221538-.82174-.195646-.37997.02241-.624.117369-.83373.324416-.2077.205047-.36285.477121-.54912.962946-.37163.969317-.49411 1.525402-.4001 1.816521.0578.178874.22484.318367.45016.375846.12819.0327.66879.01939.82743-.02037zm-9.10349 1.184693c.54162-1.543317 1.82817-5.287237 1.8465-5.373423.0377-.177255.01-.285475-.10173-.394533-.0339-.0331-.0549-.06998-.051-.08974.006-.0322.0619-.03375 1.39613-.03885.89572-.0034 1.46343.0016 1.59721.01429.80232.07577 1.24949.377037 1.38239.931321.0447.186449.0485.536823.008.769744-.0805.467413-.29946 1.046162-.52022 1.375368-.0414.06177-.14989.185896-.24101.27583-.24522.242009-.42519.336955-.79772.420807-.11158.02511-.20595.04872-.20974.05245-.005.0048.64818 1.800986.77396 2.128776.007.0188-.14166.0234-.76446.0234h-.7734l-.0188-.0681c-.0103-.0375-.15272-.51372-.31636-1.058333l-.29752-.9902h-.6825l-.36002 1.05379c-.19801.579583-.36025 1.055833-.36054 1.058333 0 .002-.34756.005-.77173.005h-.77119zm3.87085-3.24793c.13806-.01423.19881-.03065.30335-.08195.19807-.09718.28914-.223004.39415-.544611.12597-.385723.0819-.598953-.14695-.711337l-.10541-.05175-.59201-.0057-.59203-.0056-.23921.690817c-.13155.37995-.23918.69931-.23918.709692 0 .02463.97938.02498 1.21729.000529zm9.37499 3.28443c0-.0326-.0571-1.250154-.12661-2.705759-.0942-1.971384-.1338-2.678235-.15518-2.770744-.0355-.153582-.1003-.250539-.22272-.333134-.17711-.119494-.18984-.117538.79819-.122809l.88355-.0047.0114.295415c.006.162478.0319 1.1171.0567 2.121379.0249 1.004281.0472 1.862759.0495 1.907725l.004.08176h.1582l1.12008-2.202367 1.12009-2.202368.79319-.000529.7932-.00053-1.02762 1.866845c-.56517 1.026766-1.30662 2.373757-1.64761 2.993313l-.62 1.126463-.99428.005-.99425.005-.00018-.0592zm4.21528.0411c0-.01.4081-1.201582.90689-2.648469.49877-1.446887.91982-2.680777.93567-2.741977.0522-.201507.0285-.320083-.0883-.442151-.0496-.05177-.0579-.07119-.0451-.104471l.0159-.04088h4.25177l-.0513.140809c-.0282.07744-.132.363543-.23063.635775l-.17931.494969-1.16991.0047-1.16991.0047-.1869.548436c-.10282.301641-.18232.553053-.17666.558691.006.0056.48805.01024 1.07204.01024.84153 0 1.06013.0047 1.05386.0227-.005.01249-.0964.265946-.20447.563234l-.19656.540523h-1.05913c-.63989 0-1.0633.0067-1.06965.01704-.018.02918-.39095 1.117214-.39114 1.14122-.00018.01794.24982.0227 1.18986.0227.65453 0 1.19007.0066 1.19007.01455 0 .008-.0981.295111-.21804.638021-.11991.34291-.21802.6266-.21802.63044 0 .004-.89117.007-1.98041.007-1.27801 0-1.9804-.006-1.9804-.0178zm5.05095.0123c0-.003.4-1.159198.88892-2.569338.4889-1.410139.91406-2.642356.94478-2.738262.0891-.278009.0734-.427482-.058-.552469-.0441-.04196-.0608-.07159-.0543-.09642.009-.03538.0285-.03574 1.5377-.02834 1.60488.0079 1.60779.008 1.92805.09192.38605.10115.69471.32494.82431.597665.1008.212111.12041.319019.11911.649465-.003.355335-.034.534879-.17206.948785-.16475.493757-.34488.815533-.59809 1.068501-.24204.241837-.47127.36109-.83754.435729-.10398.02119-.19029.04003-.19182.04186-.003.003.66474 1.824614.75496 2.061144l.0365.0956-.77393-.005-.77393-.005-.24247-.80851c-.13335-.444682-.27657-.920932-.31824-1.058335l-.0758-.24982-.33806.000127-.33805.000109-.3614 1.062757-.36139 1.062752h-.76962c-.42328 0-.7696-.002-.7696-.005zm4.06072-3.363469c.27893-.07815.41394-.226774.52877-.582011.11441-.353838.10189-.53611-.046-.669693-.12007-.108471-.14769-.11236-.79841-.11236h-.58815l-.23397.679402c-.12869.373671-.23397.691415-.23397.706096 0 .04135 1.21544.02236 1.37173-.02143zm-31.586469 1.08081c0-.01722.5037-1.401757.51285-1.409687.003-.0024.18483-.06313.40467-.135038.66749-.218323 3.995529-1.313135 4.020149-1.32249.0208-.0079-.057.233164-.10305.31919-.0112.02101-.524939.202975-1.599669.566682l-1.58312.535752.005.06359.005.06359 1.3691.0047c1.08253.0037 1.367289.0094 1.360469.02725-.005.01244-.113269.310798-.241159.663046l-.23254.640451h-1.95916c-1.20413 0-1.95916-.0066-1.95916-.01701zm3.14231-5.438108c.0481-.142441.44928-1.313683.89155-2.602762.442269-1.289076.823429-2.408764.847009-2.488192.074-.249335.0543-.379833-.0787-.521491-.0249-.02649-.0423-.06328-.0388-.08176.006-.03211.0495-.0338.98238-.03829l.97591-.0047-.0805.23181c-.35594 1.025382-1.51753 4.41072-1.51753 4.422732 0 .0083.54425.01516 1.20945.01516h1.20947l-.0127.04088c-.007.02249-.10888.318862-.22628.658619l-.21352.617739-2.0175.0046-2.017519.0046zm4.561259.252412c0-.0064 1.89857-3.189745 2.69422-4.51745.23051-.38463.45379-.772989.4962-.863018.11877-.252169.12208-.370605.0135-.484479-.0327-.03423-.0426-.05932-.034-.0863l.0122-.03804h2.305v.06468c0 .03557.0736 1.35686.16351 2.936192.09 1.57933.16354 2.899259.16354 2.933171v.06166h-.72675c-.39971 0-.72856-.0021-.73073-.0046-.003-.0024-.008-.307055-.0138-.676789l-.01-.672245-.97552-.0047-.97555-.0047-.38714.681392-.38711.681395-.80399.00009c-.44217.000052-.80396-.0028-.80396-.0063zm4.29744-3.350273c-.006-.507137-.0153-.956815-.0206-.999283l-.01-.07722h-.1576l-.54583.967803c-.30022.532292-.55129.98197-.55793.999284-.0114.02951.0292.03148.64519.03148h.65728zm2.08521 3.332507c.11774-.306814 1.83713-5.380088 1.85139-5.462799.0289-.167199.0101-.241377-.0878-.346028-.0709-.07575-.0792-.09257-.0618-.125105.0201-.03733.0274-.0376 1.03587-.0376.55866 0 1.01946.0061 1.02399.01363.005.0075.15764.794433.34022 1.74875.18257.954315.33674 1.74084.34256 1.74783.006.007.27612-.77682.60063-1.7418.32451-.96498.59844-1.757733.6087-1.761672.0103-.0039.33848-.005.72941-.0024l.71072.0048-1.02259 2.988768-1.02259 2.98877-.71654.0047-.71652.0047-.23241-1.176637c-.49554-2.508885-.58341-2.946907-.59312-2.956618-.006-.0055-.32438.92006-.70858 2.056855l-.69852 2.066904-.69623.0048c-.57973.004-.69466.000529-.6868-.01984zm6.21688-.0076c.0191-.04876 1.55816-4.538068 1.71138-4.991881.15822-.468667.17886-.595117.11766-.721521-.0214-.04406-.063-.103286-.0926-.13162-.0429-.04115-.0501-.0583-.0357-.0852.0172-.03228.0673-.03367 1.19382-.03331.64667.000204 1.29609.0082 1.44315.0177.64407.04172 1.05373.197871 1.37726.52496.40304.407482.51199.959554.36174 1.833036-.14775.85888-.53502 1.894599-.93068 2.488925-.38568.579321-.93358.933648-1.63565 1.057767-.37214.06579-.5738.07292-2.06282.07294-1.38311.000014-1.45934-.0016-1.44757-.03178zm3.26774-1.345507c.18934-.05204.30893-.118618.43315-.241184.24593-.242633.44844-.647425.70392-1.407051.15823-.470506.21929-.723972.23215-.963809.013-.239257-.0159-.352787-.11769-.465492-.16499-.182623-.29866-.213923-.91514-.214278l-.46622-.000264-.054.158977c-.0297.08744-.288.835949-.57396 1.663359-.28596.827408-.51991 1.50876-.51991 1.51411 0 .0053.25548.0064.56777.0021.51062-.0067.58208-.01146.70993-.04658zm3.62164.346223c.0257-.06745.0544-.144171.0638-.17049.0151-.04217.0521-.05986.31136-.149076.52779-.181595 2.8693-.974961 2.87748-.974961.004 0 .006-.03066.003-.06813l-.006-.06814-1.36567-.0091-1.36568-.0091.23344-.640207c.12841-.352115.23858-.648493.24485-.658619.0183-.02945 3.91559-.02516 3.91525.0043 0 .05106-.50586 1.400577-.5289 1.412738-.027.01426-4.40306 1.453393-4.41939 1.453393-.006 0 .0111-.05519.0367-.12264zM50.892204 55.250922c-.780229-.0486-1.299466-.14103-1.723135-.30686-.524968-.20548-.868532-.53999-1.009732-.98311-.08714-.27346-.09238-.36424-.09238-1.59945v-1.16042h1.469702l.0067 1.15826c.0073 1.24841.0065 1.23789.108145 1.49438.270135.68167 1.014053.99691 2.258119.95688.533164-.0171.897726-.0868 1.203026-.2299.401537-.18816.634441-.45196.762137-.86324l.05077-.16352.0058-1.17643.0058-1.17643h1.491057l-.0078 1.19459c-.0073 1.11913-.01011 1.20493-.04472 1.35812-.0783.34664-.189466.55983-.403289.77342-.439017.43856-1.146534.64997-2.426906.72518-.356174.0209-1.307076.0201-1.653363-.002zm-27.91638-.33216v-.26417l1.657903-.006c1.807819-.007 1.745144-.003 2.13505-.11491.446799-.12802.782193-.38391.945224-.72114.153905-.31836.167066-.44843.167254-1.65306l.000148-.9584h1.474062l-.0073 1.16735c-.008 1.28233-.0074 1.27478-.125116 1.58046-.132975.34538-.428035.64255-.827069.83299-.294733.14066-.779113.26271-1.25041.31506-.578062.0642-.763826.0701-2.457334.078l-1.71241.008zm7.106333.22557c.01371-.0196.781203-.9148 1.705541-1.98924l1.680615-1.95354.772176.001.772173.001 1.698784 1.97334c.934333 1.08532 1.701511 1.98002 1.704842 1.9882.0033.008-.361254.0149-.810188.0149h-.816245l-.37987-.44398-.379868-.44398-2.171173-.00079-2.171174-.0008-.380926.44465-.380926.44464h-.434345c-.428143 0-.433988-.00053-.409416-.0357zm5.554181-1.29097c-.0087-.026-1.765631-2.06887-1.78027-2.06998-.0114-.0008-1.755564 2.01856-1.78421 2.0658-.01098.0181.349438.0227 1.778442.0227 1.210056 0 1.790207-.006 1.786038-.0185zm6.534837 1.31384c-.297886-.0134-.880845-.0618-1.059984-.088-1.162563-.16987-1.793076-.58543-1.981864-1.3062-.113456-.43316-.08527-1.02432.06601-1.38437.1578-.37557.463804-.65616.920835-.84434.223859-.0922.594201-.18676.912995-.23317.594085-.0865.885113-.0964 3.0997-.10492l2.084871-.008v.45713l-1.739664.00053c-1.784247.00053-2.232697.0115-2.525207.0623-.759434.13181-1.197333.47447-1.360715 1.06477-.04999.18061-.04608.58033.0075.76733.173014.60382.627986.93996 1.448343 1.07004.218281.0346.337129.0381 1.567061.0463l1.330864.009v-1.31212h1.489843v1.81688l-2.066703-.004c-1.136685-.002-2.123932-.006-2.193883-.009zm13.992646-.0465c.02852-.0326.798907-.9279 1.711981-1.98949l1.660131-1.93015h1.534588l1.678276 1.94681c.923052 1.07076 1.693447 1.96611 1.711987 1.98968l.03371.0429-.823458-.005-.823454-.005-.378881-.4406-.378881-.44059h-4.33356l-.379666.44431-.379664.4443-.442479.0008-.442476.00079.05185-.0593zm5.547913-1.25857c0-.0198-1.785654-2.08097-1.798386-2.07587-.0199.008-1.780022 2.05626-1.780477 2.07198-.000217.007.804939.0136 1.789234.0136s1.789629-.004 1.789629-.01zm4.12432-.67237v-1.99026l2.70261.007c2.872364.007 2.855825.007 3.273388.0945.758108.15955 1.110702.54267 1.10957 1.20562-.00053.37549-.131477.6367-.422855.84422-.296757.21135-.627319.31111-1.221152.36853-.289804.028-.335222.0352-.316442.0497.0042.003.502216.31121 1.106784.68441.604567.3732 1.11534.68942 1.135052.70272.03008.0203-.09392.0241-.772176.0239l-.808011-.00025-1.129925-.69925-1.129919-.69925h-2.037082v1.399h-1.489842zm4.851074.11866c.577413-.05.762458-.24612.762458-.80829 0-.49105-.14001-.69353-.553517-.80052-.117461-.0304-.258762-.0334-1.848678-.0395l-1.721495-.007v1.67324l1.576144-.00018c.891709 0 1.666877-.008 1.785088-.0182zm-4.673788-4.361841c-.05738-.0084-.18002-.04057-.272531-.07148-.39243-.131103-.737762-.378745-1.382707-.991552-.862479-.819507-1.002147-.928598-1.528988-1.194266-.337709-.170299-.503743-.236093-.767167-.304014-.626938-.16165-1.265806-.162703-2.957438-.0049-1.275424.118996-1.882778.126703-2.461874.03124-.971886-.16021-1.799961-.571859-2.529166-1.257292-.165168-.155255-.4577-.487788-.634423-.721177-.275172-.363405-.440367-.624501-1.040328-1.644277-.1284-.218247-.196347-.312499-.301948-.418857-.375362-.378044-.951759-.650041-1.480759-.698759-.175276-.01614-.713719.01765-1.166516.07318-1.244677.152681-2.051193.21208-2.885131.212484-1.071628.00053-1.739225-.09166-2.683679-.370578l-.249057-.07355-.112509.100221c-.346821.308936-.824921.465717-1.515126.496843-.383106.01728-.956432-.03848-1.399701-.13612-.346668-.07636-1.292972-.38476-3.442288-1.121834-1.203862-.412848-1.269084-.433056-1.398997-.433504-.253209-.000793-.380693.103251-.56211.45909-.377391.740227-.954905 1.193043-1.754415 1.3756l-.12718.02904-.163521-.08306c-.194516-.0988-.366577-.234159-.486656-.38285-.355179-.439809-.333462-.99905.06442-1.65912.513738-.852265 1.291494-1.49997 2.066509-1.720969.182052-.05191.94741-.192659 1.335408-.245578.401764-.05479.376634-.04015.24243-.141325-.617429-.465473-1.341216-.815292-1.904876-.920665-.252711-.04724-.582038-.04425-.790342.0072-.484484.11962-.863177.282485-1.237216.532095-.265763.177353-.49027.407329-.752271.770597-.114916.159337-.23558.319383-.268142.355663-.06636.07394-.189854.133546-.315084.152085-.09772.01447-.31995-.01593-.488339-.06682-.1647-.04977-.540636-.236503-.627639-.311761l-.07225-.0625.000529-.142843c.000529-.127215.007-.153937.05902-.2442l.05847-.101351-.04306-.143926c-.02368-.07916-.04872-.177533-.05565-.218606l-.01259-.07468-.121494-.01019c-.132456-.01111-.301318-.06672-.372441-.122664-.04137-.03255-.05099-.03336-.117403-.0099-.426691.150546-.90645-.111265-1.186405-.64744-.05706-.109286-.136433-.228386-.19114-.286819-.138422-.147849-.16133-.200845-.160984-.372462.000249-.123785.0085-.16287.05575-.263446.08599-.183107.314302-.469706.638345-.801314.281903-.288483.295084-.305186.277463-.351533-.02954-.0777-.02106-.229691.0176-.314825.07983-.175888.380016-.493724.637275-.674749.637593-.448654 1.607992-.774419 2.815048-.94502 1.338053-.189116 2.945707-.152718 4.796568.108601 2.89833.409207 6.469583 1.3809 10.192702 2.773309.57867.216416 2.196192.860349 3.697353 1.471904 2.440903.994399 5.576883 2.353029 6.520421 2.824908.916403.458309 2.056207 1.065038 5.189379 2.762364 2.20155 1.192639 2.934896 1.581489 3.770029 1.999028.871268.435602 1.059283.508902 1.45674.567917.280591.04166.738132.03813 1.005134-.0078.426313-.07327.638776-.15621 1.111218-.4338.320059-.188058.4562-.240218.660241-.252971.355984-.02225.628418.112853.765199.37946.06489.12649.08012.349795.03578.524629-.06795.26792-.270106.601856-.522785.863587-.418629.43362-.970725.689517-1.74987.811067-.214606.03348-.329618.03964-.735838.0394-.460782-.000265-.54828-.0066-1.016876-.07376l-.08119-.01164.08491.09707c.112019.128059.205491.317172.253291.512477l.03881.158559-.06909.104889c-.207711.31532-.521538.655656-.706178.765821-.266136.15879-.627046.22861-.9427.182374zm.533927-.452991c.224081-.07113.224631-.08429.0036-.08661-.31115-.0033-.591992-.09313-.854565-.273445-.12433-.08538-.377473-.338701-.323567-.323791.665144.183957 1.159047.240064 1.450883.164819.213643-.05508.429588-.200617.429588-.289517 0-.08128-.09213-.232281-.215956-.353944-.139406-.136975-.231862-.200303-.556218-.380992-.331615-.184732-.554566-.34553-.781259-.563462-.327408-.314751-.707382-.723403-.9717-1.045033-.568444-.691692-.694616-.82173-.990532-1.020876-.230026-.154803-.506769-.265176-.817596-.326078-.145545-.02852-.309306-.03256-1.489742-.03679-1.385848-.005-1.669357-.01651-1.965243-.08004-.312132-.06702-.517692-.167352-.777039-.379273-.333883-.272825-.510519-.531288-.900943-1.318307-.158631-.319773-.331312-.646427-.383736-.725903-.05242-.07948-.183407-.235442-.291081-.346591-.188111-.19418-.194691-.203634-.168109-.241586.01521-.02172.0353-.0395.04463-.0395.03002 0 .421521.262549.569219.381728.173411.139933.327671.317161.53403.613542.561737.806794 1.049054 1.243346 1.612513 1.444527.338876.120994.86182.19085 2.207128.294831.803886.06213 1.07819.09326 1.285894.145904.219527.05564.529516.205253.722701.348795.08554.06356.462912.427913.925669.893736.429694.432541.85893.851718.953862.931505.591527.497161 1.317239.827382 2.034908.925944.227155.0312 1.001406.03118 1.262732-.000037.280138-.03346.617429-.10283.774914-.159385.380138-.136512.79089-.430059.987481-.705715.08947-.125447.154498-.299842.154236-.413626-.000236-.101957-.07146-.252412-.14392-.304009-.143695-.102322-.295487-.06557-.855186.207077-.336204.163771-.461727.215696-.590487.24426-.709194.157332-1.567198.06357-2.371029-.259101-.177168-.07112-1.207103-.604086-4.57854-2.36928-1.201414-.629027-1.574196-.825546-2.498184-1.316965-1.767946-.940271-4.532032-2.167863-8.052549-3.576312-2.188414-.875516-3.093786-1.221337-4.965406-1.896623-1.838703-.663406-4.659402-1.589566-6.192972-2.033426l-.09734-.02817.02939.04048c.126388.174059.470582.70615.596201.921666.178292.305893.384622.689867.375087.698029-.0114.0098-.0856.04689-.0937.04689-.0043 0-.08414-.09607-.177512-.213485-.708834-.891384-1.745861-1.586309-2.93294-1.965401-.884375-.282422-1.927275-.42009-2.782014-.367239-.373113.02307-.579954.05953-.85483.150677-.221117.07332-.619188.270021-.82374.407035-.180036.120592-.381545.277659-.381545.297397 0 .0075.06425.03489.142766.06076.670211.220811 1.323796.7601 1.904212 1.571212.121137.169286.333518.5158.332568.542608-.000265.0088-.02098.03095-.04595.04912-.04516.03288-.04581.03269-.131154-.03779-.892032-.736692-2.139524-1.427326-2.780101-1.53911-.652502-.113866-1.072991-.367575-1.122506-.677278-.01442-.09012-.02729-.08698.196692-.04787.239503.04182.567327.0263.782113-.03705.273677-.08071.503172-.21436.692965-.403566.09166-.09138.228256-.274209.228256-.305525 0-.0055-.2555-.0099-.567774-.0098-.952056.000265-1.460032.05046-2.112127.208566-.964591.233868-1.648753.547032-1.889556.86491-.0633.08357-.07268.108193-.07268.191008 0 .112699.04884.17862.145801.196813.112671.02114.138581.000794.226563-.178086.149482-.303887.404109-.511503.682988-.556892.131712-.02143.897797-.04647.897797-.02934 0 .02993-.12034.248558-.196302.356635-.109985.156488-.331534.384863-.46686.481248-.230968.164507-.405678.227285-.785786.282353-.147402.02135-.317061.05506-.377018.07489-.358034.118456-.711645.47693-.845151.856779-.07395.210404-.04098.349697.124209.524809.234537.248621.492863.299434.687573.135241.09154-.0772.172217-.214071.34939-.592817.286731-.612947.406093-.781603.632174-.893262.207396-.102429.495173-.08988.736685.03212.131595.06648.317029.260156.398168.415872.197036.378129.254363.905473.135298 1.244565-.120521.343236-.445672.776089-.909595 1.210887-.134692.126235-.193337.193117-.186029.212156.02037.05308.358725.175813.484682.175813.04202 0 .0871-.01479.117118-.03839.02684-.02111.215413-.253097.419042-.515516.286523-.369245.381825-.48001.421489-.489882.180039-.04481.541327-.257897.70013-.412938.282641-.275947.380161-.566681.339958-1.013531-.03493-.38826-.138772-.709829-.300263-.929823l-.06484-.08833.07876.000529c.10205.000529.289373.065.42209.14509.274818.165846.586243.531995.801534.942377.03869.07374.109927.17739.158316.230335.08829.0966.242337.189741.313828.189741.06682 0 .537781.122296.735859.191085.596069.206999 1.007568.417787 1.796373.920181.345236.219882.422867.262721.41521.229126-.0052-.02273-.02823-.123084-.05121-.223012-.05933-.257876-.0603-.737504-.0021-.988499.02183-.094.04328-.174492.04767-.178877.0044-.0044.03238-.0026.06222.0039.0494.01085.05539.02035.06701.106198.07521.555649.475494 1.175486 1.071388 1.659043.449115.364445 1.188112.73872 1.885011.954686l.195313.06053.000002.05905c.000003.05378-.005.05905-.05572.05905-.07707 0-.497977-.06655-.70703-.111781-.288623-.06245-.674706-.185283-1.190397-.378722-.552336-.207182-.75774-.271963-1.050698-.331365-.177583-.03601-.254047-.04091-.611748-.03927-.426014.0019-1.015249.04894-1.453505.115895-1.084931.165738-1.731827.616029-2.343187 1.631056-.198003.328742-.255711.532828-.219254.775425.03531.234987.208589.513567.421714.677992l.09916.0765.103222-.04052c.05677-.02228.103235-.04479.103256-.05002.000019-.0052-.02945-.02537-.06548-.04478-.106622-.05742-.256919-.221578-.315775-.3449-.104185-.2183-.105003-.470495-.0024-.751525.05479-.150114.214366-.439076.24248-.439076.0084 0 .03454.01257.058.02795l.04266.02795-.03335.107164c-.01834.05894-.0387.166957-.04523.240038-.03701.414049.183697.712896.607613.822743l.11308.0293.06715-.05343c.101092-.08043.316145-.309176.382973-.407352.07764-.114054.144325-.266912.15833-.36291.02252-.154462.226811-.396923.422127-.501026.203575-.108503.488696-.140526.769114-.08638.07333.01416.975448.258903 2.004711.543872 2.646286.732677 2.597764.720421 3.111172.785781.313507.03991.812747.04 1.048708.00018.222541-.03755.471014-.119084.627602-.205938.153461-.08512.378217-.309529.442164-.441484.162274-.334857.130045-.863232-.08806-1.44381-.174254-.463847-.52891-1.092465-.884179-1.567193l-.05775-.07717.0416-.04428.0416-.04428.138758.105349c1.084122.82309 2.619936 1.400159 4.334735 1.628741.299691.03995.779571.08022.957154.08032l.156707.00009.01148.05741c.0063.03157.0076.06133.0028.06612-.0048.0048-.0723.01998-.150019.03372-.640353.113286-1.459566.125171-2.239798.03249-.51271-.0609-1.211795-.203377-1.726039-.351768-.134903-.03893-.247409-.06873-.250013-.06623-.0026.0024.03143.08146.07564.175453.177533.377497.267634.72929.271796 1.06117.0013.109921-.0039.24257-.01169.294778l-.01418.09492.159544.07991c.470191.235516 1.181177.410191 2.021842.496726.257247.02648.475798.03265 1.144636.0323.967763-.000529 1.375457-.02904 2.361946-.165362.44323-.06125 1.007882-.07795 1.243943-.03679.08959.01564.165759.02553.169254.02204.0158-.0158-.04165-.176414-.10641-.297437-.103148-.192767-.251084-.382045-.495017-.633338l-.214767-.221247.02997-.04575c.03516-.05366.05481-.04915.245126.05632.535525.296781 1.198094.916559 1.749505 1.636514.186303.24325.321857.450765.530513.812144.317153.549293.530267.866405.818089 1.217311.843732 1.028668 1.845924 1.624036 3.025513 1.797354.385807.05669.644544.05448 1.952419-.01664 1.059336-.05761 1.308007-.06584 1.744204-.05774.94659.0176 1.651696.142994 2.159823.38412.383299.181893 1.194271.821735 1.861209 1.468461.654037.634217.983059.89226 1.373531 1.077227.314463.148963.645388.192403.885391.116224zM32.323678 33.889645c-.04233-.0099-.05581-.02405-.06034-.06349-.01077-.09378.190576-.232762.426098-.294108.155493-.0405.791689-.03944.825563.0013.03883.04678.0013.08245-.184091.174529-.265854.132118-.454253.181005-.725612.188289-.12491.0034-.251637.000264-.281617-.0066zm-1.75812 3.721536c.07253-.04422.203846-.220035.276104-.36966.165743-.343193.138776-.844476-.05958-1.107519-.158077-.209632-.45181-.211347-.659309-.0038-.157541.15754-.314423.529066-.315209.746468-.000265.09319.02755.185383.126984.419746l.07857.185206.113829.05604c.238686.117507.338958.134323.438605.07357zm-.624617-2.845141c.142298-.03646.241572-.09436.330845-.192963l.07082-.07822-.09051-.0058c-.212196-.01365-.344342.05346-.427948.217342-.05315.104178-.05442.103529.11679.05967z" transform="translate(-14.938252 -24.127604)"/>
</svg>
