<svg version="1.2" xmlns="http://www.w3.org/2000/svg" viewBox="0 0 100 34" width="100" height="34"><style>.a{fill:#747474}.b{fill:#f8ab00}.c{fill:#e37300}</style><path fill-rule="evenodd" class="a" d="m58.8 9.2c0 2.5-2 4.4-4.5 4.4-2.4 0-4.4-1.9-4.4-4.4 0-2.5 2-4.3 4.4-4.3 2.5 0 4.5 1.8 4.5 4.3zm-2 0c0-1.4-1.1-2.6-2.5-2.6-1.3 0-2.5 1.2-2.5 2.6 0 1.5 1.2 2.7 2.5 2.7 1.4 0 2.5-1.2 2.5-2.7z"/><path fill-rule="evenodd" class="a" d="m68.4 9.2c0 2.5-2 4.4-4.5 4.4-2.4 0-4.4-1.9-4.4-4.4 0-2.5 2-4.3 4.4-4.3 2.5 0 4.5 1.8 4.5 4.3zm-2 0c0-1.4-1.1-2.6-2.5-2.6-1.4 0-2.5 1.2-2.5 2.6 0 1.5 1.1 2.7 2.5 2.7 1.4 0 2.5-1.2 2.5-2.7z"/><path fill-rule="evenodd" class="a" d="m77.5 13c0 3.2-1.9 4.5-4.2 4.5-2.1 0-3.4-1.4-3.9-2.6l1.7-0.7c0.3 0.8 1 1.6 2.2 1.6 1.5 0 2.4-0.9 2.4-2.6v-0.6h-0.1c-0.4 0.5-1.2 1-2.3 1-2.2 0-4.2-1.9-4.2-4.4 0-2.4 2-4.3 4.2-4.3 1.1 0 1.9 0.4 2.3 0.9h0.1v-0.7h1.8zm-1.7-3.7c0-1.5-1-2.7-2.4-2.7-1.3 0-2.4 1.2-2.4 2.7 0 1.5 1.1 2.6 2.4 2.6 1.4 0 2.4-1.1 2.4-2.6z"/><path class="a" d="m78.7 0.5h1.9v12.8h-1.9z"/><path fill-rule="evenodd" class="a" d="m88 10.7l1.5 1c-0.5 0.7-1.7 1.9-3.7 1.9-2.5 0-4.4-1.9-4.4-4.4 0-2.6 1.9-4.3 4.2-4.3 2.3 0 3.4 1.8 3.8 2.7l0.2 0.5-5.9 2.5q0.6 1.3 2.1 1.3c1 0 1.7-0.5 2.2-1.2zm-4.7-1.6l4-1.6c-0.2-0.6-0.9-0.9-1.7-0.9-0.9 0-2.3 0.8-2.3 2.5z"/><path class="a" d="m42.7 8.1v-1.9h6.4q0 0.5 0 1.2c0 1.4-0.3 3.1-1.6 4.3-1.2 1.2-2.7 1.9-4.8 1.9-3.8 0-6.9-3-6.9-6.8 0-3.7 3.1-6.8 6.9-6.8 2.1 0 3.6 0.8 4.7 1.9l-1.3 1.3c-0.8-0.7-1.9-1.3-3.4-1.3-2.7 0-4.9 2.2-4.9 4.9 0 2.7 2.2 4.9 4.9 4.9 1.8 0 2.8-0.7 3.5-1.3q0.8-0.8 1-2.3z"/><path fill-rule="evenodd" class="a" d="m37.3 30.4h-1.7l4.5-11.8h1.8l4.5 11.8h-1.7l-1.2-3.2h-5zm3.6-9.9l-1.9 5.3h3.9l-1.9-5.3z"/><path class="a" d="m47.1 22.4h1.5v1.1h0.1q0.3-0.6 1-1 0.8-0.4 1.5-0.4 1.6 0 2.4 0.8 0.8 0.9 0.8 2.4v5.1h-1.6v-4.9q0-2-2-2-0.9 0-1.5 0.7-0.6 0.7-0.6 1.7v4.5h-1.6z"/><path fill-rule="evenodd" class="a" d="m59.2 22.1q1.7 0 2.7 0.9 1 0.9 1 2.5v4.9h-1.5v-1.1h-0.1q-0.9 1.4-2.5 1.4-1.4 0-2.3-0.8-0.9-0.8-0.9-2 0-1.2 1-2 0.9-0.7 2.5-0.7 1.4 0 2.3 0.5v-0.4q0-0.8-0.6-1.3-0.7-0.6-1.5-0.6-1.3 0-2.1 1.1l-1.3-0.8q1.1-1.6 3.3-1.6zm-2 5.9q0 0.5 0.5 0.9 0.5 0.4 1.2 0.4 1 0 1.7-0.7 0.8-0.7 0.8-1.6-0.7-0.6-2-0.6-0.9 0-1.6 0.4-0.6 0.5-0.6 1.2z"/><path class="a" d="m64.5 18.6h1.6v11.8h-1.6z"/><path class="a" d="m75.1 22.4l-5.1 11.6h-1.6l1.9-4.1-3.3-7.5h1.6l2.5 5.8 2.4-5.8z"/><path class="a" d="m79.3 30.5q-0.9 0-1.6-0.6-0.7-0.6-0.7-1.7v-4.5h-1.4v-1.3h1.4v-2.5h1.5v2.5h2.1v1.3h-2.1v4q0 0.9 0.4 1.2 0.3 0.2 0.7 0.2 0.2 0 0.3 0 0.2 0 0.4-0.1l0.4 1.3q-0.6 0.2-1.4 0.2z"/><path class="a" d="m83.9 19.6q0 0.4-0.3 0.7-0.3 0.3-0.8 0.3-0.4 0-0.7-0.3-0.4-0.3-0.4-0.7 0-0.5 0.4-0.8 0.3-0.3 0.7-0.3 0.5 0 0.8 0.3 0.3 0.3 0.3 0.8zm-1.8 2.8h1.5v8h-1.5z"/><path class="a" d="m88.8 30.7q-1.8 0-3-1.2-1.2-1.3-1.2-3.1 0-1.9 1.2-3.1 1.2-1.2 3-1.2 1.2 0 2.2 0.6 0.9 0.6 1.4 1.7l-1.4 0.6q-0.7-1.5-2.3-1.5-1.1 0-1.8 0.8-0.8 0.8-0.8 2.1 0 1.2 0.8 2.1 0.7 0.8 1.8 0.8 1.7 0 2.3-1.5l1.4 0.6q-0.4 1-1.4 1.7-1 0.6-2.2 0.6z"/><path class="a" d="m100 28.2q0 1-0.9 1.8-1 0.7-2.4 0.7-1.2 0-2.2-0.7-0.9-0.6-1.3-1.6l1.4-0.6q0.3 0.7 0.9 1.1 0.5 0.4 1.2 0.4 0.8 0 1.2-0.3 0.5-0.3 0.5-0.7 0-0.8-1.2-1.2l-1.4-0.3q-2.4-0.6-2.4-2.3 0-1.1 1-1.7 0.9-0.7 2.3-0.7 1.1 0 1.9 0.5 0.9 0.5 1.3 1.4l-1.4 0.5q-0.2-0.5-0.8-0.8-0.5-0.3-1.1-0.3-0.6 0-1.1 0.3-0.5 0.3-0.5 0.8 0 0.6 1.3 1l1.3 0.3q2.4 0.6 2.4 2.4z"/><path class="b" d="m21.1 4v25c0 2.8 2 4.3 4 4.3 1.9 0 4.1-1.3 4.1-4.3v-24.8c0-2.6-2-4.2-4.1-4.2-2.1 0-4 1.8-4 4z"/><path class="c" d="m10.5 16.7v12.3c0 2.8 2 4.3 4.1 4.3 1.9 0 4-1.3 4-4.3v-12.1c0-2.6-1.9-4.2-4-4.2-2.1 0-4.1 1.8-4.1 4z"/><path class="c" d="m4 33.3c-2.2 0-4-1.8-4-4 0-2.2 1.8-3.9 4-3.9 2.3 0 4.1 1.7 4.1 3.9 0 2.2-1.8 4-4.1 4z"/></svg>