<svg version="1.2" xmlns="http://www.w3.org/2000/svg" viewBox="0 0 100 28" width="100" height="28">
	<title>Magnolia_(CMS)_logo-svg</title>
	<style>
		.s0 { fill: #7ba02d } 
	</style>
	<g id="layer101">
		<path id="Layer" fill-rule="evenodd" class="s0" d="m32.6 26.1c-1.9-0.1-3.9-0.4-5.2-0.7-3.2-0.7-4.7-1.7-4.7-3.1 0-1 0.9-1.8 2.6-2.6 0.8-0.3 2.3-0.8 3.2-1 0.7-0.1 2.6-0.6 2.6-0.6 0 0-0.4-0.1-0.8-0.3-0.4-0.1-1-0.3-1.3-0.4l-0.4-0.2h-1.5l-1.5 0.1v-0.5-0.4l-0.3 0.2q-0.4 0.4-1.1 0.6c-0.5 0.1-1.9 0.1-2.4 0-1.2-0.3-2.1-1.1-2.4-2.2-0.2-0.5-0.3-1.4-0.2-2 0.2-0.9 0.9-1.7 1.8-2.1 0.7-0.4 1.1-0.4 3-0.4h1.6v-0.5c0-0.6-0.1-0.9-0.4-1.2-0.4-0.4-1.2-0.6-2.1-0.4-0.6 0.1-0.9 0.2-1.3 0.6l-0.3 0.3-0.3-0.3c-0.8-0.8-1.5-1.5-1.5-1.5 0-0.2 0.7-0.8 1.1-1 0.1-0.1 0.6-0.3 0.9-0.3 1.5-0.4 3.9-0.3 5 0.3 0.5 0.2 1.1 0.9 1.4 1.4 0.4 0.8 0.4 0.8 0.4 4.2v3.1l0.2-0.1c0.3-0.2 1.8-0.9 3.1-1.4l0.4-0.2-0.4-0.2c-1.5-0.8-2.1-1.8-1.9-3.1 0.1-0.5 0.5-1.2 0.8-1.6 0.5-0.5 1.3-1.1 2.3-1.5 1-0.5 1.5-0.7 2.9-1 1.8-0.4 2.8-0.5 5-0.6 2.1 0 3 0 4.5 0.3 0.7 0.2 0.8 0.2 4.3 0.2 2 0 3.7 0 3.7 0q0.1 0.1 0.1 0.5v0.4l0.2-0.1c0.3-0.3 0.7-0.5 1.2-0.7 0.4-0.1 0.6-0.1 1.4-0.1 0.8 0 1 0 1.4 0.1 0.3 0.1 0.6 0.3 0.8 0.4 0.4 0.3 0.9 0.9 1.1 1.3 0.4 1 0.4 0.8 0.5 5.3v4.1h-2.8l-0.1-3.6c0-4.1 0-4-0.5-4.5-0.8-0.9-2.4-0.6-2.9 0.5-0.1 0.2-0.1 0.3-0.2 4v3.6h-2.9v-9.7l-0.5-0.1c-0.2 0-0.7 0-0.9 0h-0.5l0.4 0.3c0.1 0.2 0.3 0.5 0.4 0.7 0.2 0.3 0.2 0.4 0.2 0.9 0 0.7-0.1 1.1-0.5 1.6-0.3 0.5-1 1.2-1.5 1.5-1.1 0.7-2.7 1.3-4.1 1.6-1.5 0.4-2.4 0.4-4.3 0.5-1.9 0-3.1-0.1-4.5-0.3l-0.7-0.1-0.4 0.2c-0.5 0.2-0.9 0.4-1 0.7-0.1 0.2-0.1 0.2 0 0.4 0.3 0.7 1.7 1.1 8.1 1.9 1.7 0.3 3.7 0.6 4.4 0.8 0.9 0.2 2.2 0.7 2.7 0.9 0.4 0.2 1 0.8 1.2 1.2 0.5 0.8 0.3 1.7-0.5 2.5-0.5 0.6-0.9 0.9-1.8 1.4-1 0.4-1.4 0.6-2.9 1-1.9 0.5-3.6 0.7-5.8 0.9-1.2 0.1-4.3 0.1-5.6 0.1zm6.1-1.3c3.2-0.4 5.4-1.3 6-2.4 0.1-0.4 0.1-0.6 0-0.9-0.3-0.7-1.4-1.3-3-1.7-1.6-0.4-5.8-0.9-7.1-0.9-1.4 0-4 0.6-5.5 1.4-1.9 0.9-2.3 2-1.2 3 1 0.8 3.4 1.5 6.1 1.6 1 0 4.1 0 4.7-0.1zm-14.1-10c0.4-0.1 0.8-0.5 0.9-0.9 0-0.2 0.1-0.5 0.1-0.9v-0.5h-1.2c-1.4 0-1.8 0.1-2.1 0.4-0.4 0.4-0.5 0.9-0.2 1.3 0.2 0.6 0.6 0.7 1.5 0.7 0.5 0 0.7 0 1-0.1zm16-1.5c2.3-0.4 3.8-1.6 4.1-3.2 0.3-1.1-0.3-2.2-1.5-2.7-0.7-0.3-1.1-0.5-2.1-0.5-2-0.2-4 0.3-5.1 1.3-0.8 0.8-1.2 1.5-1.2 2.4-0.1 1.1 0.3 1.8 1.4 2.4 1 0.5 2.9 0.6 4.4 0.3z"/>
		<path id="Layer" class="s0" d="m14.9 13.6c-0.1-2.7-0.1-3.7-0.1-3.9-0.4-1.1-2.1-1.5-3-0.7-0.5 0.6-0.5 0.4-0.5 4.6l-0.1 3.7h-1.4-1.4v-3.7c0-4.2 0-4-0.5-4.5-0.4-0.3-0.8-0.5-1.3-0.5-0.7 0-1.3 0.4-1.5 0.9-0.2 0.4-0.3 1-0.3 4.5v3.3h-1.4-1.5v-5.6-5.6h1.4 1.4l0.1 0.4v0.5l0.2-0.2c0.3-0.2 0.8-0.5 1.2-0.7 0.3 0 0.6-0.1 1.3-0.1 0.9 0 1 0.1 1.4 0.2 0.5 0.2 1 0.5 1.3 0.8l0.2 0.3 0.3-0.3c0.5-0.5 0.9-0.7 1.6-0.8 0.6-0.2 0.7-0.2 1.5-0.2 0.8 0 1 0.1 1.4 0.2 1.1 0.4 1.9 1.2 2.3 2.5l0.2 0.5v4 4.1h-1.4-1.4z"/>
		<path id="Layer" fill-rule="evenodd" class="s0" d="m65.5 17.2c-0.6-0.1-1.2-0.3-1.6-0.5-0.1-0.1-0.5-0.5-0.8-0.8-0.9-0.9-1.2-1.6-1.3-3.4-0.1-1.2 0-2.6 0.2-3.4q0.4-1.4 1.5-2.3c0.8-0.7 1.9-1 3.3-0.9 0.7 0 0.9 0.1 1.5 0.2 0.8 0.3 1.1 0.5 1.7 1.1 0.8 0.9 1.2 1.7 1.3 3.4 0 1.2-0.1 2.6-0.2 3.4-0.2 0.8-0.5 1.2-1.1 1.9-0.5 0.5-0.7 0.6-1.1 0.9-1 0.5-2.3 0.6-3.4 0.4zm1.9-2.7c0.4-0.2 0.7-0.7 0.8-1.1 0.2-0.5 0.2-2.6 0.1-3.3-0.1-0.6-0.2-0.8-0.6-1.1-0.7-0.7-1.8-0.6-2.4 0-0.5 0.6-0.6 1.1-0.6 2.6 0 1.6 0.1 2.2 0.7 2.7 0.4 0.3 0.6 0.4 1.2 0.4 0.4 0 0.6-0.1 0.8-0.2z"/>
		<path id="Layer" fill-rule="evenodd" class="s0" d="m87.5 17.3c-1.2-0.2-2.2-0.8-2.6-1.8-0.3-0.6-0.4-1.1-0.4-1.9 0-0.6 0.1-0.8 0.2-1.2 0.3-0.6 0.8-1.1 1.5-1.5 0.7-0.3 1.2-0.4 3.1-0.4h1.7l-0.1-0.5c0-0.6-0.2-1-0.5-1.2-0.3-0.3-0.8-0.5-1.5-0.5-0.8 0-1.2 0.2-1.7 0.6l-0.5 0.4-0.2-0.2c-0.6-0.6-1.6-1.6-1.6-1.6 0-0.2 0.8-0.8 1.1-1 1.4-0.8 4.6-0.8 6 0 0.5 0.3 1.1 0.9 1.4 1.4 0.3 0.8 0.4 0.8 0.4 5.3v4h-2.9v-0.9l-0.2 0.2c-0.3 0.3-0.8 0.5-1.2 0.7-0.5 0.1-1.4 0.1-2 0zm2.3-2.4c0.4-0.1 0.9-0.5 1-0.9 0.1-0.3 0.1-0.7 0.1-1.1v-0.3h-1.4c-1.2 0-1.4 0.1-1.6 0.1-0.5 0.3-0.7 0.9-0.6 1.5 0.1 0.3 0.5 0.7 0.8 0.8 0.3 0.1 1.3 0.1 1.7-0.1z"/>
		<path id="Layer" class="s0" d="m75.5 17.1c-1.1-0.3-2-1.3-2.2-2.4q0-0.4 0-6.6v-6.2h1.4 1.4v6.1c0.1 5.8 0.1 6.2 0.2 6.3 0.2 0.4 0.3 0.4 1.2 0.4l0.8 0.1-0.1 1.2v1.2h-1.2c-0.8 0-1.2 0-1.5-0.1z"/>
		<path id="Layer" class="s0" d="m79.8 11.6v-5.5h1.5 1.4v5.5 5.6h-1.4-1.5z"/>
		<path id="Layer" fill-rule="evenodd" class="s0" d="m95.5 7.7c-0.8-0.2-1.4-0.8-1.6-1.5-0.2-0.9 0-1.9 0.6-2.3 0.5-0.4 0.8-0.5 1.3-0.5 0.5 0 0.6 0 1 0.1 1.4 0.7 1.7 2.6 0.5 3.7-0.5 0.4-1.2 0.6-1.8 0.5zm1.1-0.8c0.5-0.3 0.7-0.7 0.8-1.3 0-0.4 0-0.5-0.2-0.8-0.1-0.2-0.3-0.5-0.4-0.6-0.2-0.1-0.7-0.3-1-0.2-0.4 0-0.9 0.4-1.1 0.7-0.4 0.5-0.3 1.3 0 1.8 0.2 0.2 0.6 0.4 0.8 0.5 0.3 0.1 0.8 0 1.1-0.1z"/>
		<path id="Layer" fill-rule="evenodd" class="s0" d="m95.1 4.4h0.6c0.5 0 0.7 0.1 0.9 0.1 0.3 0.2 0.5 0.8 0.2 1.1l-0.2 0.2 0.2 0.3c0.2 0.5 0.2 0.5-0.2 0.5h-0.4l-0.2-0.3c0-0.2-0.1-0.4-0.2-0.4 0 0 0 0.2 0 0.4v0.4h-0.7zm1 0.8c0.2-0.1 0.1-0.3-0.2-0.3-0.1 0-0.1 0.1-0.1 0.2 0 0.1 0 0.2 0.1 0.2 0.1 0 0.2-0.1 0.2-0.1z"/>
		<path id="Layer" class="s0" d="m79.8 3.1v-1.2h1.4 1.5v1.2 1.1h-1.5-1.4z"/>
	</g>
</svg>