<svg version="1.2" xmlns="http://www.w3.org/2000/svg" viewBox="0 0 100 100" width="100" height="100"><style>.a{fill:#ff6c37}.b{fill:#fff}</style><path class="a" d="m99.6 56.3c3.5-27.3-15.9-52.4-43.2-55.9-27.3-3.5-52.5 15.9-56 43.2-3.5 27.3 15.9 52.4 43.2 56 27.4 3.5 52.4-15.9 56-43.3z"/><path class="b" d="m68 32.1l-21 21.1-6-5.9c20.7-20.8 22.8-19 27-15.2z"/><path fill-rule="evenodd" class="a" d="m47 53.7q-0.3 0-0.4-0.2l-6-5.9c-0.2-0.2-0.2-0.5 0-0.7 21.1-21.1 23.3-19.1 27.7-15.1q0.2 0.1 0.2 0.4 0 0.2-0.2 0.3l-21 21c-0.1 0.1-0.2 0.2-0.3 0.2zm-5.3-6.4l5.3 5.2 20.3-20.3c-3.7-3.3-6.2-4.3-25.6 15.1z"/><path class="b" d="m53 59.2l-5.7-5.7 21-21.1c5.7 5.7-2.8 15-15.3 26.8z"/><path fill-rule="evenodd" class="a" d="m53 59.7q-0.2 0-0.4-0.1l-5.7-5.8c-0.1-0.1-0.1-0.2-0.1-0.3q0-0.2 0.2-0.4l21-21c0.2-0.2 0.5-0.2 0.7 0 1.3 1.2 2 2.9 2 4.6-0.1 5.6-6.4 12.6-17.3 22.9q-0.2 0.1-0.4 0.1zm-5-6.2c3.1 3.2 4.5 4.5 5 5 8.4-8 16.5-16.1 16.6-21.8 0-1.3-0.5-2.6-1.3-3.6z"/><path class="b" d="m41.1 47.4l4.3 4.2q0.1 0.2 0 0.3c-0.1 0.1-0.1 0.1-0.1 0.1l-8.8 1.9c-0.5 0-0.9-0.3-1-0.7 0-0.3 0.1-0.5 0.2-0.7l5.1-5c0.1-0.1 0.3-0.2 0.3-0.1z"/><path fill-rule="evenodd" class="a" d="m36.3 54.4c-0.7 0-1.3-0.6-1.3-1.4 0-0.3 0.2-0.7 0.4-0.9l5.1-5.1c0.3-0.2 0.7-0.2 1 0l4.3 4.2c0.3 0.3 0.3 0.7 0 1-0.1 0.1-0.2 0.2-0.4 0.2l-8.8 1.9c-0.1 0-0.2 0.1-0.3 0.1zm4.7-6.4l-4.9 4.8c-0.1 0.1-0.2 0.3-0.1 0.4 0.1 0.2 0.2 0.2 0.4 0.2l8.2-1.8z"/><path class="b" d="m79.2 20.4c-3.2-3.1-8.4-3-11.5 0.3-3.1 3.2-3 8.3 0.3 11.4 2.6 2.6 6.6 3 9.8 1.1l-5.7-5.7z"/><path fill-rule="evenodd" class="a" d="m73.6 34.9c-4.8 0-8.6-3.9-8.6-8.6 0-4.8 3.8-8.6 8.6-8.6 2.2 0 4.3 0.8 5.9 2.4q0.2 0.1 0.2 0.3 0 0.2-0.2 0.4l-6.7 6.7 5.3 5.3c0.2 0.2 0.2 0.5 0 0.7-0.1 0.1-0.1 0.1-0.1 0.1-1.3 0.8-2.9 1.3-4.4 1.3zm0-16.2c-4.2 0-7.6 3.4-7.6 7.6 0 4.2 3.4 7.6 7.6 7.6 1.2 0 2.3-0.3 3.4-0.8l-5.3-5.2q-0.1-0.2-0.1-0.4 0-0.2 0.1-0.3l6.7-6.7c-1.3-1.2-3-1.8-4.8-1.8z"/><path class="b" d="m79.3 20.6l-0.1-0.1-7.1 7 5.6 5.7c0.6-0.4 1.1-0.8 1.6-1.2 3.2-3.2 3.2-8.3 0-11.4z"/><path fill-rule="evenodd" class="a" d="m77.8 33.7q-0.2 0-0.4-0.1l-5.7-5.7q-0.1-0.2-0.1-0.4 0-0.2 0.1-0.3l7.1-7.1c0.2-0.2 0.5-0.2 0.7 0l0.2 0.1c3.3 3.3 3.3 8.7 0 12.1q-0.7 0.8-1.6 1.3-0.2 0.1-0.3 0.1zm-5-6.2l5 5.1c0.4-0.3 0.8-0.6 1.1-0.9 2.9-2.9 3-7.5 0.3-10.5z"/><path class="b" d="m68.9 33c-1.2-1.2-3.2-1.2-4.4 0l-18.8 18.8 3.2 3.2 19.9-17.5c1.3-1.1 1.4-3 0.3-4.3q-0.1-0.1-0.2-0.2z"/><path fill-rule="evenodd" class="a" d="m48.8 55.5q-0.2 0-0.3-0.2l-3.2-3.1c-0.2-0.2-0.2-0.5 0-0.7l18.8-18.8c1.4-1.4 3.7-1.4 5.1 0 1.4 1.4 1.4 3.6 0 5q-0.1 0.1-0.2 0.2l-19.9 17.4q-0.1 0.2-0.3 0.2zm-2.4-3.7l2.5 2.5 19.5-17.2c1.1-0.9 1.2-2.5 0.3-3.6-0.9-1.1-2.5-1.2-3.6-0.3q-0.1 0-0.2 0.1z"/><path class="b" d="m31.3 73.3c-0.2 0.1-0.3 0.3-0.3 0.5l0.9 3.6c0.2 0.5-0.1 1.1-0.7 1.2-0.4 0.2-0.8 0-1.1-0.3l-5.5-5.4 18-18 6.2 0.1 4.1 4.2c-1 0.9-7 6.7-21.6 14.1z"/><path fill-rule="evenodd" class="a" d="m30.9 79.1c-0.4 0-0.8-0.1-1.1-0.4l-5.4-5.5q-0.2-0.1-0.2-0.3 0-0.2 0.2-0.4l17.9-17.9c0.1-0.1 0.3-0.2 0.4-0.2l6.2 0.1q0.2 0 0.3 0.2l4.2 4.2q0.1 0.2 0.1 0.4c0 0.1 0 0.2-0.2 0.3l-0.3 0.3c-5.3 4.7-12.5 9.3-21.4 13.8l0.8 3.5c0.2 0.7-0.1 1.4-0.7 1.7-0.3 0.2-0.6 0.2-0.8 0.2zm-5.5-6.2l5.1 5.1c0.2 0.2 0.5 0.3 0.7 0.2 0.3-0.2 0.4-0.5 0.2-0.7l-0.8-3.6c-0.1-0.5 0.1-0.9 0.5-1.1 8.8-4.4 16-9 21.2-13.6l-3.7-3.7-5.7-0.1z"/><path class="b" d="m20.4 77.2l4.3-4.3 6.4 6.4-10.2-0.7c-0.5-0.1-0.8-0.5-0.7-0.9 0-0.2 0-0.4 0.2-0.5z"/><path fill-rule="evenodd" class="a" d="m31.1 79.7l-10.3-0.7c-0.7 0-1.2-0.7-1.2-1.4 0.1-0.3 0.2-0.6 0.4-0.8l4.3-4.3c0.2-0.2 0.5-0.2 0.7 0l6.4 6.4c0.2 0.1 0.2 0.3 0.1 0.5q-0.1 0.3-0.4 0.3zm-6.4-6.1l-4 3.9c-0.1 0.1-0.1 0.4 0 0.5 0.1 0 0.1 0.1 0.2 0.1l8.9 0.6z"/><path fill-rule="evenodd" class="a" d="m40.8 57.2c-0.3 0-0.5-0.2-0.5-0.5q0-0.2 0.2-0.3l4.8-4.9c0.2-0.2 0.5-0.2 0.7 0l3.2 3.2q0.2 0.2 0.1 0.5c0 0.1-0.2 0.3-0.4 0.3l-8 1.7q-0.1 0-0.1 0zm4.9-4.6l-3.3 3.3 5.4-1.2z"/><path class="b" d="m48.8 55l-5.5 1.2c-0.4 0.1-0.8-0.1-0.9-0.5-0.1-0.3 0-0.5 0.2-0.7l3-3.1z"/><path fill-rule="evenodd" class="a" d="m43.2 56.7c-0.7 0-1.3-0.5-1.3-1.2 0-0.4 0.2-0.7 0.4-0.9l3-3.1c0.2-0.2 0.5-0.2 0.7 0l3.2 3.2q0.2 0.2 0.1 0.5c0 0.1-0.2 0.3-0.4 0.3l-5.5 1.2q-0.2 0-0.2 0zm2.5-4.1l-2.7 2.7q-0.2 0.1-0.1 0.3 0.1 0.1 0.3 0.1l4.6-1z"/><path class="a" d="m79.4 25.4c-0.1-0.3-0.5-0.5-0.8-0.4-0.3 0.1-0.4 0.5-0.3 0.8 0 0 0 0.1 0 0.1 0.3 0.6 0.2 1.4-0.2 1.9-0.2 0.3-0.1 0.6 0.1 0.8 0.2 0.2 0.6 0.2 0.8-0.1 0.7-0.9 0.9-2.1 0.4-3.1z"/></svg>