<svg version="1.2" xmlns="http://www.w3.org/2000/svg" viewBox="0 0 100 29" width="100" height="29"><defs><linearGradient id="P" gradientUnits="userSpaceOnUse"/><linearGradient id="g1" x2="1" href="#P" gradientTransform="matrix(0,-20.1,20.006,0,10.199,24.312)"><stop stop-color="#0052cc"/><stop offset="1" stop-color="#2684ff"/></linearGradient></defs><style>.a{fill:url(#g1)}.b{fill:#293856}</style><path fill-rule="evenodd" class="a" d="m20.2 6.6v15.3c0 0.6-0.3 1.3-0.7 1.7-0.4 0.5-1.1 0.7-1.7 0.7h-15.2c-0.7 0-1.3-0.2-1.7-0.7-0.5-0.4-0.7-1.1-0.7-1.7v-15.3c0-1.3 1.1-2.4 2.4-2.4h15.2c1.3 0 2.4 1.1 2.4 2.4zm-11.4 2.1c0-0.4-0.4-0.8-0.8-0.8h-3.3c-0.5 0-0.8 0.4-0.8 0.8v10c0 0.4 0.3 0.8 0.8 0.8h3.3q0.3 0 0.6-0.2 0.2-0.3 0.2-0.6zm7.7 0c0-0.4-0.3-0.8-0.8-0.8h-3.3c-0.5 0-0.8 0.4-0.8 0.8v5.4c0 0.4 0.3 0.8 0.8 0.8h3.3q0.3 0 0.6-0.3 0.2-0.2 0.2-0.5z"/><path class="b" d="m41.6 5.7v3.9h-4.5v14.7h-4.5v-14.7h-4.5v-3.9z"/><path class="b" d="m47.3 24.3h-4.1v-14.5h4.1v2.8c0.7-2 2-3.1 4.2-3v4.3c-2.9-0.2-4.2 0.5-4.2 2.8z"/><path class="b" d="m73.8 24.4c-2.7 0-4.4-1.3-4.4-4.3v-15.9h4.1v15.3c0 0.9 0.6 1.2 1.3 1.2q0.3 0 0.6 0v3.6q-0.8 0.2-1.6 0.1z"/><path class="b" d="m82.4 24.4c-2.7 0-4.4-1.3-4.4-4.3v-15.9h4.1v15.3c0 0.9 0.6 1.2 1.3 1.2q0.3 0 0.6 0v3.6q-0.8 0.2-1.6 0.1z"/><path fill-rule="evenodd" class="b" d="m86 17.1c0-4.5 2.6-7.6 7-7.6 4.4 0 6.9 3.1 6.9 7.6 0 4.4-2.5 7.6-6.9 7.6-4.4 0-7-3.2-7-7.6zm4 0c0 2.1 0.9 3.9 3 3.9 2 0 2.9-1.8 2.9-3.9 0-2.2-0.9-3.9-2.9-3.9-2.1 0-3 1.7-3 3.9z"/><path fill-rule="evenodd" class="b" d="m61.1 21.2c1.6 0 3.2-0.5 4.6-0.9v3.4c-1.5 0.6-3.1 0.9-4.8 0.9-5.5 0-7.9-2.8-7.9-7.4 0-4.5 2.8-7.7 7.2-7.7 3.3 0 6 2.2 6 5.2 0 3-2.6 3.9-5.8 3.9q-1.7 0-3.4-0.2c0.4 2.1 1.9 2.8 4.1 2.8zm-1-8.5c-1 0-2 0.6-2.6 1.6q-0.5 0.9-0.5 1.9 1 0.2 2.1 0.2c1.7 0 3.1-0.5 3.1-1.9 0-1-0.9-1.8-2.1-1.8z"/></svg>