<svg version="1.2" xmlns="http://www.w3.org/2000/svg" viewBox="0 0 100 100" width="100" height="100"><style>.a{fill:#f7df1e}</style><path class="a" d="m0 0h100v100h-100z"/><path  d="m67.2 78.1c2 3.3 4.6 5.7 9.2 5.7 3.9 0 6.4-1.9 6.4-4.6 0-3.2-2.5-4.4-6.8-6.2l-2.4-1c-6.7-2.9-11.3-6.6-11.3-14.2 0-7.1 5.4-12.4 13.8-12.4 6 0 10.3 2.1 13.4 7.5l-7.3 4.7c-1.7-2.9-3.4-4-6.1-4-2.7 0-4.5 1.7-4.5 4 0 2.8 1.8 4 5.8 5.7l2.3 1c8 3.4 12.5 6.9 12.5 14.8 0 8.4-6.6 13.1-15.5 13.1-8.8 0-14.4-4.2-17.2-9.6zm-33.2 0.8c1.5 2.6 2.9 4.8 6.1 4.8 3.1 0 5-1.2 5-5.9v-31.9h9.4v32c0 9.8-5.7 14.2-14 14.2-7.5 0-11.9-3.9-14.1-8.6z"/></svg>