<svg version="1.2" xmlns="http://www.w3.org/2000/svg" viewBox="0 0 100 25" width="100" height="25"><style></style><path fill-rule="evenodd" d="m23.9 14.7c0 2.2 1.2 2.8 2.5 2.8 1 0 1.5-0.3 1.9-0.5 0.4-0.2 2.2-1 3.7 0.8-1.7 1.6-3.4 2.8-6.5 2.8-3.1 0-6.3-2.2-5.7-7.1 0.6-5 4.3-7.4 7.7-7.4 3 0 4.8 1.9 4.8 3.6 0 1.8-0.6 4.2-8.4 5zm3.5-5.8c-0.8 0-2.4 0.2-3.2 3.2 3.9-0.6 4.2-1.5 4.2-2.1 0.1-0.6-0.4-1.1-1-1.1zm-6.8-2.5l-4.2 10.2c-0.9 2-2.5 3.9-5.5 3.9 0 0-1.2-8.7-1.3-8.9 0 0.2-1.8 4.8-1.8 4.8-0.9 2.1-2.5 4.1-5.5 4.1l-2.3-14.1c1.9 0 4.3 1.6 4.5 4.2 0 0 0.3 5.1 0.3 5.6 0.2-0.5 2.2-5.7 2.2-5.7 0.8-2.1 2.3-4.1 5.2-4.1 0 0 1.2 9.3 1.3 9.7 0.1-0.4 1.8-5.6 1.8-5.6 0.8-2.1 2.3-4.1 5.3-4.1zm26.6 5c0 4.5-2.8 9.2-6.9 9.2-1.6 0-2.7-0.7-3.4-1.6-0.8 1-2.3 1.4-3.7 1.4l1.8-15.2c0.4-3.1 2.4-5.2 4.9-5.2l-1.1 8.5c1.2-1.5 2.6-2.4 4.4-2.4 2 0 4 1.2 4 5.3zm-5.7-2.1c-1.2 0-2.4 1.8-2.8 3-0.5 1.1-0.7 2.4-1 4.6 0 0 0.6 0.6 2 0.6 1.3 0 2.7-1.7 3.2-4.2 0.4-2.5-0.2-4-1.4-4zm16-2.4c-0.2 1.5-1.3 2.4-2.1 2.4h-1l-1.2 10.3c-0.4 3.1-2.1 5.2-4.8 5.3q-0.1 0-0.2 0l0.5-2.4 1.6-13.2h-1.9v-0.5c0.2-1.4 1.2-2.4 2.2-2.4v-0.1c0.5-3.8 2.3-6.3 8.1-6.2 0 0-0.3 1.5-0.3 2-0.2 0.5-0.6 1-1.6 1.1-1.5 0.2-1.9 1.2-2.1 3v0.2h2.9zm20.7 5.2c0 3.9-2.8 8.6-7.7 8.6-4.9 0-6.4-4.5-5.4-8.3 1-3.9 4.1-6.3 7.4-6.3 3 0 5.7 2.1 5.7 6zm-6-2.8c-1.9 0-2.8 2.2-3 3.7-0.2 1.5-0.5 4.5 1.6 4.5 2.1 0 2.9-2.6 3.1-4.3 0.2-2 0-4-1.7-4zm27.7-2.8l-4.2 10.2c-0.9 2-2.5 3.9-5.5 3.9 0 0-1.2-8.8-1.2-8.9-0.1 0.2-1.9 4.8-1.9 4.8-0.8 2.1-2.4 4.1-5.4 4.1l-2.4-14.1c2 0 4.4 1.5 4.6 4.1 0 0 0.3 5.2 0.3 5.6 0.1-0.4 2.2-5.6 2.2-5.6 0.8-2.1 2.3-4.2 5.1-4.2 0 0 1.3 9.4 1.3 9.8 0.1-0.4 1.8-5.6 1.8-5.6 0.8-2.1 2.4-4.1 5.3-4.1zm-36.2-0.8l-1.4 11.1c-0.3 2.8-2.2 5.1-4.8 5.1q-0.1 0-0.2 0l0.5-2.4 2.5-19.3c1.8 0 3.9 2.1 3.4 5.5z"/></svg>