<svg version="1.2" xmlns="http://www.w3.org/2000/svg" viewBox="0 0 100 25" width="100" height="25"><style>.a{fill:#009cde}</style><path fill-rule="evenodd" class="a" d="m18.9 15.2c0.1 2.5-0.9 5-2.7 6.8-1.8 1.8-4.2 2.8-6.7 2.8-2.6 0-5-1-6.8-2.8-1.8-1.8-2.8-4.3-2.7-6.8 0-4.4 3-7.4 5.6-10 1.7-1.7 3.4-3.3 3.9-5.2 0.4 1.9 2.1 3.5 3.8 5.2 2.6 2.6 5.6 5.6 5.6 10zm-13.3-0.1l2.3-2.4q0-0.1 0-0.1 0 0 0-0.1 0 0 0-0.1 0 0 0 0l-2.2-2.2-0.4-0.4q-0.1 0.1-0.3 0.3-0.1 0.2-0.2 0.3-0.2 0.2-0.3 0.4-0.1 0.1-0.2 0.3-0.2 0.3-0.4 0.6-0.2 0.3-0.3 0.6-0.1 0.3-0.3 0.6-0.1 0.3-0.2 0.6c0 0-0.4 1.8 0.1 3l0.1 0.1q0 0.2 0.1 0.3c0 0 0.3 0.4 0.5 0.4h0.1q0 0 0 0 0 0 0.1 0 0 0 0 0 0-0.1 0-0.1 0.1-0.2 0.2-0.3 0.1-0.2 0.2-0.3 0.1-0.1 0.2-0.3 0.1-0.1 0.2-0.3zm5.1 6.9q0.6-0.3 1.1-0.7 0.4-0.5 0.7-1.1 0.2-0.6 0.2-1.2 0-0.3 0-0.5-0.1-0.3-0.1-0.5-0.1-0.2-0.2-0.4-0.1-0.3-0.3-0.5 0 0 0 0 0 0 0-0.1 0 0-0.1 0 0-0.1 0-0.1c-0.7-0.8-1.4-1.6-2.5-2.8-0.9 1.1-1.8 1.9-2.4 2.7-0.5 0.5-0.7 1-0.8 1.7-0.1 0.6 0 1.2 0.2 1.8 0.3 0.6 0.7 1 1.2 1.4 0.5 0.3 1.1 0.5 1.8 0.5q0.6 0 1.2-0.2zm5-5.4q0.1-0.2 0.1-0.5 0.1-0.2 0.1-0.4 0-0.3 0-0.5 0-0.6-0.1-1.1-0.1-0.5-0.2-1-0.2-0.6-0.5-1-0.2-0.5-0.5-1-0.4-0.5-0.8-1-0.4-0.5-0.8-1-0.4-0.4-0.9-0.9-0.4-0.5-0.9-0.9-0.9-0.9-1.8-1.9-0.8 0.9-1.7 1.7-0.1 0.2-0.2 0.3-0.1 0.2-0.2 0.3 0 0.2 0 0.4 0 0.2 0 0.4 0 0 0 0 0 0.1 0 0.2 0.1 0 0.1 0.1 0 0 0 0.1 0.1 0 0.1 0.1 0 0 0 0 0 0 0 0 0 0 0.1 0 0 0.1 0 0.1 0.2 0.2 0.4 0.4 0.2 0.2 0.4 0.5 0.2 0.2 0.4 0.4 0.3 0.2 0.5 0.4l2.9 3 0.8 0.9q0.3 0.3 0.5 0.5 0.3 0.3 0.5 0.6 0.3 0.3 0.5 0.6 0.2 0.3 0.4 0.7 0.1 0 0.1 0 0 0.1 0.1 0.1 0 0 0.1 0.1 0 0 0 0h0.1q0.1 0 0.1 0 0.1-0.1 0.1-0.1 0 0 0.1-0.1 0 0 0-0.1 0.1-0.2 0.1-0.4z"/><path class="a" d="m60.9 9.4h-3.1v5.7c0 1.7-0.7 3.1-2.4 3.1-1.7 0-2.4-1.4-2.4-3.1v-5.7h-3.1v5.7c0 3.3 2.2 6 5.5 6 3.4 0 5.5-2.6 5.5-6z"/><path class="a" d="m88.8 5.9h3v14.9h-3z"/><path class="a" d="m94.1 6.4v-0.5h2.4v0.5h-0.9v2.4h-0.6v-2.4h-0.9z"/><path class="a" d="m97.7 5.9l0.7 2 0.7-2h0.9v2.9h-0.6v-2.1l-0.7 2.1h-0.5l-0.8-2.1v2.1h-0.6v-2.9h0.9z"/><path class="a" d="m47.4 9.2c-2.6-0.6-4.3 2.1-4.4 2.2 0 0.1 0 0.1-0.1 0.1-0.1 0-0.1-0.1-0.1-0.1l-0.4-2h-2.7v11.4h3.1v-6.2c0-0.5 1.3-2.9 4-2.3q0.3 0.1 0.5 0.2 0.3 0 0.5 0.2 0.3 0.1 0.5 0.2 0.2 0.1 0.4 0.3v-3.5q-0.1-0.1-0.3-0.1-0.1-0.1-0.3-0.2-0.2 0-0.3-0.1-0.2 0-0.4-0.1"/><path fill-rule="evenodd" class="a" d="m62 24.6v-9.4c0-2.3 1.3-4.4 3.4-5.4 2.1-1 4.5-0.8 6.4 0.6 1.8 1.4 2.7 3.7 2.3 5.9-0.5 2.3-2.1 4.1-4.4 4.7q-0.6 0.2-1.3 0.2-0.6-0.1-1.2-0.4-0.6-0.3-1.1-0.8-0.5-0.5-0.7-1.1c-0.1 0-0.1-0.1-0.2-0.1-0.1 0-0.1 0.1-0.1 0.1v5.7zm6.1-12.4q-0.6 0-1.2 0.2-0.5 0.2-1 0.6-0.4 0.5-0.6 1-0.3 0.6-0.3 1.2c0 1.3 0.8 2.4 1.9 2.9 1.2 0.4 2.5 0.2 3.4-0.7 0.9-0.9 1.1-2.2 0.6-3.4-0.4-1.1-1.6-1.8-2.8-1.8z"/><path fill-rule="evenodd" class="a" d="m84.4 18.9c0 0 0-0.1-0.1-0.1-0.1 0-0.1 0.1-0.1 0.1q-0.3 0.6-0.8 1.1-0.4 0.5-1 0.8-0.6 0.3-1.3 0.4-0.7 0-1.3-0.2c-2.2-0.6-3.9-2.4-4.3-4.7-0.5-2.2 0.4-4.5 2.3-5.9 1.8-1.4 4.3-1.6 6.3-0.6 2.1 1 3.4 3.1 3.4 5.4v5.6h-3.1m-0.1-6.8q-0.3-0.5-0.7-1-0.4-0.4-1-0.6-0.5-0.3-1.2-0.3c-1.2 0-2.3 0.8-2.8 1.9-0.5 1.2-0.2 2.5 0.7 3.4 0.8 0.9 2.2 1.1 3.3 0.6 1.2-0.4 1.9-1.6 1.9-2.8q0-0.6-0.2-1.2z"/><path fill-rule="evenodd" class="a" d="m30 20.8h-3.5v-14.9h3.8c4.5 0 8 0.8 8 7.4 0 6.7-3.7 7.5-8.3 7.5zm0.9-12.4h-1.3v9.8h1.3c2.6 0 4.3-0.2 4.3-4.9 0-4.4-1.5-4.9-4.3-4.9z"/></svg>